HIERARCHY
ROOT Spine
{
    OFFSET 0.0 0.0 -0.0
    CHANNELS 6 Xposition Yposition Zposition Zrotation Xrotation Yrotation
    JOINT ShoulderCenter
    {
        OFFSET 0.0 28.986366271972656 0.0
        CHANNELS 3 Zrotation Xrotation Yrotation
        JOINT LeftShoulder
        {
            OFFSET 17.241127014160156 0.0 0.0
            CHANNELS 3 Zrotation Xrotation Yrotation
            JOINT LeftElbow
            {
                OFFSET 26.649410247802734 0.0 0.0
                CHANNELS 3 Zrotation Xrotation Yrotation
                JOINT LeftHand
                {
                    OFFSET 26.809906005859375 0.0 0.0
                    CHANNELS 3 Zrotation Xrotation Yrotation
                    End Site
                    {
                        OFFSET 10.723962783813477 0.0 0.0
                    }
                }
            }
        }
        JOINT RightShoulder
        {
            OFFSET -17.241127014160156 0.0 0.0
            CHANNELS 3 Zrotation Xrotation Yrotation
            JOINT RightElbow
            {
                OFFSET -26.649410247802734 0.0 0.0
                CHANNELS 3 Zrotation Xrotation Yrotation
                JOINT RightHand
                {
                    OFFSET -26.809906005859375 0.0 0.0
                    CHANNELS 3 Zrotation Xrotation Yrotation
                    End Site
                    {
                        OFFSET -10.723962783813477 0.0 0.0
                    }
                }
            }
        }
        End Site
        {
            OFFSET 0.0 11.594547271728516 0.0
        }
    }
    JOINT LeftHip
    {
        OFFSET 14.8234889946034 -14.8234889946034 0.0
        CHANNELS 3 Zrotation Xrotation Yrotation
        JOINT LeftKnee
        {
            OFFSET 0.0 -40.246559143066406 0.0
            CHANNELS 3 Zrotation Xrotation Yrotation
            JOINT LeftFoot
            {
                OFFSET 0.0 -40.3082389831543 0.0
                CHANNELS 3 Zrotation Xrotation Yrotation
                End Site
                {
                    OFFSET 0.0 0.0 16.1232967376709
                }
            }
        }
    }
    JOINT RightHip
    {
        OFFSET -14.8234889946034 -14.8234889946034 0.0
        CHANNELS 3 Zrotation Xrotation Yrotation
        JOINT RightKnee
        {
            OFFSET 0.0 -40.246559143066406 0.0
            CHANNELS 3 Zrotation Xrotation Yrotation
            JOINT RightFoot
            {
                OFFSET 0.0 -40.3082389831543 0.0
                CHANNELS 3 Zrotation Xrotation Yrotation
                End Site
                {
                    OFFSET 0.0 0.0 16.1232967376709
                }
            }
        }
    }
}
MOTION
Frames: 9
Frame Time: 0.03333333333333333
-167.0 0.7000000476837158 15.399999618530273 8.491854837707344 0.19676283818688942 84.83351239892367 -5.160096562196748e-07 3.482704514287878e-08 2.1511944531720046 91.9624820179544 64.49994315779999 171.60722136014294 -1.206554853380065e-06 -3.116382542623013e-06 14.284018908915092 0.0 -1.5902773407317584e-15 0.0 -86.29510901217229 32.741009744147135 -178.27711241067422 1.333014294410906e-06 2.2166264169347573e-07 -16.721837382991097 1.7655625192200634e-31 6.3611093629270335e-15 -3.1805546814635168e-15 5.120451391092338 -3.171373315035214 32.33046387261655 20.30572304902989 20.939900616681566 -107.45558331524921 0.0 0.0 -1.987846675914698e-16 5.039182880976385 -4.124676872964145 -16.403197739156404 -9.253909239324866 16.267468599234913 37.71891847363142 -9.939233379573489e-17 -2.1875560998637262e-33 2.522080470066773e-15
-166.90000915527344 0.7000000476837158 15.399999618530273 8.49182520815088 0.19676319822920585 85.16371934514103 -2.3983328954122617e-07 -2.947588293892249e-07 2.0142771131720623 92.19784866282224 63.76227829662993 171.29256351331748 -6.866661262834842e-07 1.1687100412867898e-07 14.168692880328605 -8.827812596100317e-32 -1.590277340731758e-15 -6.361109362927032e-15 -86.36180076860497 32.08038734640898 -178.08899855557462 -5.1033843122001945e-06 6.026844367195376e-06 -16.77231259453148 1.5902773407317584e-15 4.4139062980501586e-32 3.1805546814635168e-15 5.2340700362543044 -3.048823575192922 32.27778072503193 20.15268049255073 20.77486189832397 -108.26264958992824 3.1805546814635164e-15 5.517382872562698e-33 1.9878466759146977e-16 5.1516666687347215 -3.8950514675079937 -15.612521512058574 -8.980292187823943 16.16087686049799 37.000549104764325 -1.987846675914698e-16 3.9756933518293955e-16 1.2411617682742394e-14
-166.70001220703125 0.7000000476837158 15.5 8.880630463191665 1.4297697740791646e-08 84.85317102608985 -3.92828187691233e-08 -1.8196788832450374e-07 2.5161950970962996 93.05195156509278 64.41538512831993 170.6200854625582 1.926872015317822e-06 1.9758682727883646e-06 14.023460645270799 -8.827812596100317e-32 -3.1805546814635168e-15 -3.1805546814635168e-15 -86.45645230823897 32.19672936373459 -177.60670649273789 1.6480071583209644e-06 1.554677474537131e-06 -16.783603328118506 -9.541664044390547e-15 0.0 0.0 5.373386293763436 -2.310891560743161 31.376417974824992 19.739858886142436 20.84935431394741 -107.47882440696928 3.1805546814635168e-15 -3.975693351829396e-16 -1.987846675914698e-16 5.305780666173043 -3.295596982872662 -15.467395516982135 -8.804211053927688 16.037659838167865 36.35443241872044 -4.969616689786745e-16 -1.5086593792163628e-33 3.4787316828507215e-16
-166.60000610351562 0.7000000476837158 15.600000381469727 8.491825761279896 -0.19676215297391345 85.22305190023054 -6.72410470196286e-07 -7.492011149363773e-07 2.190830882859519 92.94867844695845 65.05904287213875 171.26099943210383 -3.7247440720923858e-06 2.910533157957937e-06 13.918438919003622 0.0 0.0 0.0 -86.01001227207018 32.420368816287 -178.0533244617367 4.981072534567598e-07 8.152006250135605e-07 -16.377869459555278 3.1805546814635168e-15 -1.7655625192200634e-31 -6.3611093629270335e-15 5.578684412023515 -2.5755634714563547 30.02599991355669 19.343666098372715 21.0895260316562 -105.84973511455922 0.0 0.0 7.951386703658792e-16 5.490553837396731 -3.53128995584401 -15.214587401517711 -8.612924684340937 16.10316704933145 36.768745672395205 4.969616689786745e-16 -1.9878466759146977e-16 2.7581372628316434e-15
-166.5 0.7000000476837158 15.700000762939453 8.491825331446496 -0.39352099417659914 85.58404574137775 6.472051316319898e-07 3.4214301694267594e-07 2.023890067400184 93.45653624571 63.30364704347618 170.7732585922532 2.1174096569964387e-06 5.964402364561652e-07 14.126963007981743 -8.827812596100317e-32 -1.5902773407317584e-15 -6.3611093629270335e-15 -86.05297096857619 31.812460777195362 -177.57888361926328 -2.0939949347172627e-06 -1.6206980638244829e-06 -16.729117631643998 1.7655625192200634e-31 6.3611093629270335e-15 -3.1805546814635168e-15 5.7585184942278795 -2.5955321368739623 30.176300102625127 19.553460881590105 21.021205141452775 -105.52313997633757 0.0 -3.975693351829396e-16 0.0 5.820280410860637 -3.5685589539523934 -15.616907449872379 -8.88304537043745 16.331122038313513 37.44888417220108 4.969616689786744e-16 -7.951386703658791e-16 -3.4166114742283866e-15
-166.5 0.7000000476837158 15.80000114440918 8.297139868579247 -0.5905655459539635 85.54650488136006 -2.609739289561565e-07 -4.659426369100694e-09 2.092524854369662 93.59630425283822 62.81910017381174 170.81810836462952 7.156418389868455e-07 4.780702249135844e-06 14.395981946601594 0.0 0.0 0.0 -85.41898947193478 33.50471694607396 -178.03238282324367 -2.7373471838999964e-06 2.9302650680524835e-06 -16.39068044397291 3.1805546814635164e-15 0.0 0.0 6.014399574860883 -3.216064374349206 32.795234959811204 21.047535026662054 20.682352736391557 -108.79721219472604 0.0 0.0 3.9756933518293955e-16 6.035247075899 -3.742756839760764 -16.260300606795333 -9.087041564028462 15.586290508063042 36.687036517509746 2.9817700138720465e-16 3.975693351829396e-16 6.497773821896169e-15
-166.40000915527344 0.7000000476837158 15.80000114440918 8.074565940859507 -0.39257526591777375 85.5928049146384 5.097356215759588e-07 2.4270761616769184e-07 2.5746810469786356 93.21524414912766 64.45430012542359 171.20976246632713 -2.5009381244289306e-06 -2.3146042362058705e-06 14.113580433911077 0.0 0.0 0.0 -85.70398756770898 32.8235928094379 -177.84756720437716 -4.4813411233582105e-07 -2.2933432589697724e-06 -16.55311600222879 1.5902773407317584e-15 0.0 0.0 5.717726522469108 -3.886333253365295 33.01335670829534 22.135073914969446 21.395586102888128 -110.45859119351684 0.0 0.0 -7.951386703658792e-16 5.829678066887575 -3.8158384017187874 -15.402053095231548 -8.819890448903928 15.703209288266757 36.613026346252596 -1.1099422575663241e-32 -1.9878466759146977e-16 -6.3983814881004326e-15
-166.3000030517578 0.800000011920929 15.899999618530273 7.685515734713827 -0.5894011284269237 86.30178608739945 2.8624542335342405e-07 5.797134210814873e-07 2.5610811324602247 92.90661560196705 64.84780441290361 171.855675417041 -2.9816342409724583e-06 3.6961464431217136e-06 14.20403647984271 -6.361109362927035e-15 0.0 0.0 -85.35219631512796 33.469840105269355 -178.11697713116743 6.740115498446414e-06 -1.4652101981803849e-06 -16.580149953583067 1.5902773407317584e-15 -4.4139062980501586e-32 -3.1805546814635168e-15 5.973491825641123 -5.364560612573856 36.91376026738774 24.556124347530652 20.83294020975608 -114.34035577952766 -5.517382872562698e-33 -1.5902773407317582e-15 -3.9756933518293955e-16 6.140294853645753 -4.112873571563391 -16.02013896343249 -9.07757275876826 15.616119084223282 37.20093204589426 -3.975693351829396e-16 3.9756933518293955e-16 6.435653613273835e-15
-166.1999969482422 0.7000000476837158 15.899999618530273 7.295750085270794 -0.3932919997764469 85.92527509416854 -3.8538917458349326e-07 -2.8804037352903365e-07 3.038279070427724 92.30814197023736 64.69270798924711 172.29869041026654 1.9308223901076777e-06 2.3873355702812214e-06 14.218441983600329 -1.2722218725854067e-14 3.531125038440127e-31 -3.1805546814635168e-15 -85.5763789170571 33.121449483664975 -178.072079858229 -2.7772994647282195e-06 -9.329497626788333e-07 -16.72835520765742 6.3611093629270335e-15 1.7655625192200634e-31 3.1805546814635168e-15 5.7812545393025525 -6.634616150095347 39.70769074066791 26.703780280142162 21.12751271681303 -117.60172923397359 -3.1805546814635168e-15 3.975693351829397e-16 -3.578124016646457e-15 6.01030502551036 -4.611687207265011 -16.160758500398263 -9.197085244425168 15.854730789264044 37.21662082659915 1.987846675914698e-16 1.987846675914698e-16 -5.292641774622883e-15
